Coordinates
version=1
nRows=16
nColumns=22
inDegrees=yes

Units are S.I. units (second, meters, Newtons, ...)
If the header above contains a line with 'inDegrees', this indicates whether rotational values are in degrees (yes) or radians (no).

endheader
time	pelvis_tilt	pelvis_list	pelvis_rotation	pelvis_tx	pelvis_ty	pelvis_tz	hip_flexion_r	hip_adduction_r	hip_rotation_r	knee_angle_r	ankle_angle_r	subtalar_angle_r	hip_flexion_l	hip_adduction_l	hip_rotation_l	knee_angle_l	ankle_angle_l	subtalar_angle_l	lumbar_extension	lumbar_bending	lumbar_rotation
      0.01000000	     -1.37852451	      1.18567671	     -0.30648458	      0.59397267	      0.91583984	      1.18514952	      7.01350394	     -7.07887513	     -0.97083060	    -62.98449737	    -16.61930361	      6.08803943	     21.34091650	      5.19989675	    -12.09111747	    -30.14408420	     10.27829642	    -12.17329453	     -6.53675252	     -7.94073947	      3.59850704
      0.02000000	     -1.30900755	      1.18190856	      0.11532223	      0.59979288	      0.91639308	      1.18295460	      8.37442712	     -7.08071218	     -0.66183253	    -64.44210399	    -15.62018597	      6.07692215	     20.74132561	      5.47057570	    -11.78813986	    -29.92251645	     10.56497999	    -12.19752375	     -6.70864679	     -7.86620505	      3.12586885
      0.03000000	     -1.24259293	      1.17116184	      0.64134703	      0.60659779	      0.91700315	      1.18032441	      9.93646318	     -7.05981469	     -0.30439447	    -65.97103443	    -14.50238668	      6.07535004	     20.04229115	      5.78715520	    -11.38566973	    -29.64492839	     10.91721348	    -12.23873559	     -6.87730353	     -7.76338497	      2.59575179
      0.04000000	     -1.12822163	      1.15388194	      1.26690584	      0.61415647	      0.91773737	      1.17733705	     11.54453109	     -7.01769636	      0.07414463	    -67.42708200	    -13.25852195	      6.13436432	     19.19916210	      6.12595255	    -10.93347489	    -29.30516678	     11.28758247	    -12.25162416	     -7.09093737	     -7.63263530	      1.97149299
      0.05000000	     -0.98270058	      1.12187256	      1.96279590	      0.62215977	      0.91854015	      1.17411544	     13.16135290	     -6.93270319	      0.48822546	    -68.72148051	    -11.95717372	      6.22312311	     18.26029107	      6.46802157	    -10.38783932	    -28.92257492	     11.70360883	    -12.24069408	     -7.32917605	     -7.47176084	      1.35820977
      0.06000000	     -0.84609630	      1.09286882	      2.73862772	      0.63040538	      0.91934599	      1.17067686	     14.76589037	     -6.83730701	      0.90560249	    -69.78021170	    -10.57948463	      6.33161476	     17.28500783	      6.81871219	     -9.78956725	    -28.49565735	     12.04857740	    -12.23648798	     -7.53713677	     -7.29925608	      0.68543860
      0.07000000	     -0.69906649	      1.05565010	      3.57547385	      0.63873901	      0.92016917	      1.16710061	     16.29390397	     -6.71723109	      1.32247481	    -70.54779964	     -9.13573731	      6.45457599	     16.26954692	      7.15579679	     -9.12397334	    -28.04105420	     12.37584691	    -12.21941055	     -7.73687579	     -7.10787008	      0.00544447
      0.08000000	     -0.54243812	      1.01436038	      4.46827663	      0.64705011	      0.92099967	      1.16341614	     17.71746955	     -6.58228751	      1.73035387	    -70.99919489	     -7.63142892	      6.58059679	     15.23060762	      7.47610970	     -8.39488357	    -27.57294129	     12.67202774	    -12.18696530	     -7.93049210	     -6.90620686	     -0.68323945
      0.09000000	     -0.37615319	      0.97205612	      5.41729235	      0.65531475	      0.92185749	      1.15962271	     19.01109113	     -6.44837175	      2.10671219	    -71.11009880	     -6.10753542	      6.67786329	     14.15567826	      7.78051349	     -7.60345329	    -27.06461195	     12.91392942	    -12.14473896	     -8.11446102	     -6.69719142	     -1.39529645
      0.10000000	     -0.19786473	      0.92296771	      6.39181382	      0.66346321	      0.92271610	      1.15580857	     20.18308174	     -6.28975891	      2.48735722	    -70.89852164	     -4.59126657	      6.71210094	     13.06656162	      8.05221728	     -6.75425849	    -26.55394846	     13.14123896	    -12.08672801	     -8.30127840	     -6.48384156	     -2.08051140
      0.11000000	     -0.04726417	      0.86739124	      7.37741813	      0.67147319	      0.92348168	      1.15202640	     21.28416000	     -6.10346408	      2.89184919	    -70.38680601	     -3.08445694	      6.71796368	     12.02545431	      8.28242550	     -5.89715862	    -26.07274681	     13.38444722	    -12.02435283	     -8.44756391	     -6.27982857	     -2.74287031
      0.12000000	      0.15476033	      0.80841113	      8.41039234	      0.67946082	      0.92436790	      1.14814099	     22.18728499	     -5.93847419	      3.21867413	    -69.52915188	     -1.71015187	      6.50944766	     10.86989715	      8.49123648	     -4.93347562	    -25.49001849	     13.53539167	    -11.98051122	     -8.63961510	     -6.06036414	     -3.42168407
      0.13000000	      0.31280514	      0.73641530	      9.44169266	      0.68735032	      0.92511569	      1.14432623	     23.03973082	     -5.74673405	      3.56499918	    -68.39428719	     -0.39337926	      6.28865182	      9.78071442	      8.64679852	     -3.98677624	    -24.93838776	     13.72058225	    -11.95392157	     -8.77411033	     -5.85123875	     -4.08330278
      0.14000000	      0.45766346	      0.64772095	     10.48771059	      0.69519465	      0.92580268	      1.14052028	     23.79512565	     -5.55009949	      3.87726175	    -66.97333231	      0.79496926	      6.04826220	      8.69567406	      8.75172873	     -3.02085825	    -24.36504309	     13.89530160	    -11.94775637	     -8.88418519	     -5.63477594	     -4.74067848
      0.15000000	      0.55159707	      0.54417479	     11.53444170	      0.70296392	      0.92631714	      1.13677479	     24.51085193	     -5.34751328	      4.18145340	    -65.30169038	      1.90114114	      5.90835351	      7.68922282	      8.80858345	     -2.07822317	    -23.82623258	     14.11326265	    -11.93946224	     -8.93791299	     -5.42620659	     -5.41011950
      0.16000000	      0.73815619	      0.42086656	     12.57069729	      0.71076583	      0.92698117	      1.13307568	     25.00077710	     -5.10433975	      4.45771066	    -63.33041684	      2.75817764	      5.61789942	      6.54056953	      8.79533630	     -1.06855613	    -23.20298406	     14.26371861	    -11.98232322	     -9.09196813	     -5.18620062	     -6.03005014
